<svg width="42" height="40" viewBox="0 0 57 55" fill="none" xmlns="http://www.w3.org/2000/svg">
<path fill-rule="evenodd" clip-rule="evenodd" d="M28.5476 0C12.9972 0 0.386108 12.6237 0.386108 28.1969C0.386108 40.6526 8.45524 51.2216 19.6468 54.952C21.056 55.2098 21.5694 54.3389 21.5694 53.5914C21.5694 52.9215 21.5453 51.1491 21.5314 48.7968C13.6975 50.5 12.0446 45.0164 12.0446 45.0164C10.7634 41.7588 8.91687 40.8913 8.91687 40.8913C6.3597 39.1432 9.11051 39.1779 9.11051 39.1779C11.9374 39.3768 13.4243 42.084 13.4243 42.084C15.9365 46.3923 20.0169 45.1479 21.6213 44.4262C21.8772 42.6051 22.6051 41.3624 23.4091 40.6577C17.1554 39.9445 10.5801 37.5266 10.5801 26.7222C10.5801 23.6428 11.678 21.1278 13.4796 19.1563C13.1892 18.4431 12.2227 15.5767 13.7563 11.6942C13.7563 11.6942 16.1197 10.936 21.5003 14.5831C23.7462 13.9582 26.1564 13.6466 28.551 13.6345C30.9439 13.6466 33.3524 13.9582 35.6018 14.5831C40.9789 10.936 43.3388 11.6942 43.3388 11.6942C44.8761 15.5767 43.9097 18.4431 43.6208 19.1563C45.4259 21.1278 46.5152 23.6428 46.5152 26.7222C46.5152 37.5543 39.9294 39.9377 33.6567 40.6352C34.6664 41.5061 35.5672 43.2267 35.5672 45.8576C35.5672 49.6257 35.5326 52.6671 35.5326 53.5914C35.5326 54.3461 36.041 55.2238 37.4691 54.9482C48.6522 51.2115 56.7144 40.6509 56.7144 28.1969C56.7144 12.6237 44.1032 0 28.5476 0Z" fill="white"/>
</svg>
