<svg width="42" height="41" viewBox="0 0 57 56" fill="none" xmlns="http://www.w3.org/2000/svg">
<path d="M28.8359 0.486572C13.2796 0.486572 0.671753 12.7971 0.671753 27.9866C0.671753 43.176 13.2796 55.4866 28.8359 55.4866C44.3922 55.4866 57 43.176 57 27.9866C57 12.7971 44.3922 0.486572 28.8359 0.486572ZM20.9587 39.4915H15.4689V22.3362H20.9587V39.4915ZM18.0653 20.1877H18.0213C16.03 20.1877 14.7428 18.8772 14.7428 17.2122C14.7428 15.5149 16.074 14.2366 18.0983 14.2366C20.1226 14.2366 21.3658 15.5149 21.4098 17.2122C21.4208 18.8665 20.1336 20.1877 18.0653 20.1877ZM42.9179 39.4915H36.691V30.6184C36.691 28.2981 35.7229 26.7083 33.5776 26.7083C31.9383 26.7083 31.0252 27.7825 30.6071 28.8137C30.4531 29.179 30.4751 29.6946 30.4751 30.2209V39.4915H24.3032C24.3032 39.4915 24.3802 23.7649 24.3032 22.3362H30.4751V25.0325C30.8382 23.8508 32.8075 22.175 35.9539 22.175C39.8595 22.175 42.9179 24.6458 42.9179 29.9524V39.4915Z" fill="white"/>
</svg>
